# xmcd CD database file
#
# Track frame offsets:
#	150
#	20992
#	45120
#	69505
#	88607
#	110497
#	133312
#	156727
#	181100
#	198270
#	220430
#	231132
#
# Disc length: 3382 seconds
#
# Revision: 0
# Processed by: cddbd v1.5PL3 Copyright (c) Steve Scherf et al.
# Submitted via: CDex 1.51
#
DISCID=ac0d340c
DTITLE=Orienta - Little Flama
DYEAR=2000
DGENRE=Japanese Pop
TTITLE0=delayed action
TTITLE1=Luck
TTITLE2=flow
TTITLE3=フレア
TTITLE4=sob her heart out
TTITLE5=psych
TTITLE6=Timeless
TTITLE7=Pray
TTITLE8=デジャヴー
TTITLE9=security blanket
TTITLE10=bluebird
TTITLE11=DOWN (bonus track)
EXTD=YEAR: 2000
EXTT0=
EXTT1=
EXTT2=
EXTT3=
EXTT4=
EXTT5=
EXTT6=
EXTT7=
EXTT8=
EXTT9=
EXTT10=
EXTT11=
PLAYORDER=
